<?xml version="1.0" standalone="no"?>
<!DOCTYPE svg PUBLIC "-//W3C//DTD SVG 20010904//EN"
 "http://www.w3.org/TR/2001/REC-SVG-20010904/DTD/svg10.dtd">
<svg version="1.0" xmlns="http://www.w3.org/2000/svg"
 width="300.000000pt" height="300.000000pt" viewBox="0 0 300.000000 300.000000"
 preserveAspectRatio="xMidYMid meet">
<metadata>
Created by potrace 1.10, written by Peter Selinger 2001-2011
</metadata>
<g transform="translate(0.000000,300.000000) scale(0.100000,-0.100000)"
fill="#000000" stroke="none">
<path d="M1470 2565 c0 -20 -5 -25 -27 -25 -14 0 -23 -3 -20 -7 9 -8 -23 -44
-34 -38 -4 3 -17 -7 -28 -21 -12 -15 -21 -24 -21 -20 0 4 -6 1 -14 -6 -8 -7
-12 -16 -9 -20 2 -5 -2 -8 -9 -8 -7 -1 -42 -28 -78 -61 -36 -34 -134 -122
-219 -197 -85 -76 -195 -175 -245 -221 -50 -46 -101 -88 -113 -94 -15 -6 -23
-19 -23 -34 0 -23 1 -23 25 -7 13 9 29 14 35 12 6 -2 39 24 73 57 34 33 210
192 390 353 l328 294 58 -54 c31 -29 139 -127 240 -218 164 -148 181 -165 162
-174 -18 -8 -32 1 -94 60 -39 38 -112 105 -162 149 -49 43 -116 104 -148 134
l-57 55 -63 -60 c-68 -66 -197 -183 -444 -402 -88 -78 -180 -163 -203 -188
-30 -32 -45 -43 -53 -35 -7 7 -16 4 -28 -10 -12 -14 -38 -23 -85 -30 -37 -5
-69 -11 -71 -12 -1 -2 0 -42 4 -89 6 -92 16 -108 53 -88 10 6 23 10 28 10 6 0
8 -122 5 -321 -4 -305 -3 -320 14 -315 10 3 74 19 142 35 l123 30 137 -122
c75 -68 205 -182 288 -256 l153 -133 73 64 c40 35 127 110 194 168 66 58 133
116 149 129 29 24 168 146 214 189 14 13 66 57 117 99 l92 76 6 61 c8 72 10
260 6 437 -2 103 1 133 14 159 9 18 15 41 12 51 -3 11 -1 22 5 25 19 12 62
123 77 202 7 37 6 42 -10 42 -10 0 -21 -4 -24 -10 -3 -5 -1 -10 4 -10 16 0 13
-27 -3 -33 -24 -9 -41 -49 -122 -276 -3 -11 -13 -6 -37 17 -28 28 -57 41 -57
28 0 -3 18 -22 40 -44 l40 -39 0 -100 c0 -96 -1 -101 -22 -106 -13 -3 -32 -8
-43 -12 -19 -6 -20 -2 -17 90 4 95 4 96 -48 230 -52 132 -70 156 -70 91 0 -33
-1 -33 -67 -48 l-68 -14 -3 -61 -3 -62 38 10 c120 31 162 68 62 55 -68 -9 -67
16 2 38 28 10 52 16 54 14 1 -2 10 -18 19 -35 14 -29 15 -33 1 -33 -8 0 -31
-24 -51 -54 -30 -46 -42 -56 -81 -65 l-45 -12 3 -104 c1 -58 1 -106 -2 -108
-2 -2 -21 -7 -41 -10 l-38 -6 0 115 c0 63 3 114 8 114 4 0 18 10 32 21 l25 21
-32 -6 -33 -6 0 115 0 114 38 10 c143 36 272 64 275 60 2 -2 14 -33 28 -68 13
-34 28 -64 34 -65 5 0 23 37 40 83 28 75 35 86 63 95 32 11 37 17 30 38 -3 9
-31 6 -104 -12 -54 -13 -130 -31 -168 -39 l-68 -17 -47 46 c-45 43 -307 280
-384 347 -20 18 -37 37 -37 42 0 5 -11 12 -24 15 -14 3 -28 15 -31 26 -9 28
-25 25 -25 -5z m42 -202 c22 -20 23 -41 1 -65 -20 -22 -41 -23 -65 -1 -20 18
-23 36 -8 64 13 23 47 25 72 2z m-92 -106 c0 -13 -5 -28 -11 -34 -6 -6 -11
-64 -12 -143 -2 -97 -5 -134 -14 -137 -10 -4 -13 27 -13 130 0 107 -3 137 -15
147 -21 18 -19 46 7 64 27 19 58 5 58 -27z m181 33 c23 -13 25 -43 4 -60 -11
-9 -15 -41 -17 -128 -2 -81 -7 -117 -15 -120 -10 -3 -13 25 -13 117 0 69 -4
122 -10 126 -16 10 -11 53 8 64 21 13 20 13 43 1z m-101 -65 c0 -8 -9 -15 -20
-15 -11 0 -20 7 -20 15 0 8 9 15 20 15 11 0 20 -7 20 -15z m224 -31 c20 -19
20 -38 1 -54 -10 -8 -15 -31 -15 -66 0 -41 -4 -54 -15 -54 -12 0 -15 13 -15
55 0 40 -4 57 -15 61 -8 4 -15 16 -15 28 0 43 44 61 74 30z m-426 -6 c18 -18
15 -46 -8 -65 -17 -15 -20 -30 -20 -115 0 -59 -4 -98 -10 -98 -6 0 -10 40 -10
100 0 72 -4 107 -15 123 -13 20 -13 25 1 45 17 24 43 29 62 10z m162 -113 c0
-96 -3 -115 -15 -115 -12 0 -15 19 -15 115 0 96 3 115 15 115 12 0 15 -19 15
-115z m68 8 c-2 -74 -7 -108 -15 -111 -10 -3 -13 23 -13 107 0 93 2 111 15
111 13 0 15 -16 13 -107z m-328 43 c6 -8 10 -24 8 -35 -3 -19 -3 -19 -27 0
-13 11 -21 25 -17 34 7 19 20 19 36 1z m140 -96 c0 -82 -3 -100 -15 -100 -12
0 -15 17 -15 94 0 88 3 97 28 105 1 1 2 -44 2 -99z m304 53 c10 -61 7 -83 -9
-83 -12 0 -15 13 -15 60 0 67 14 80 24 23z m170 31 c20 -8 21 -48 1 -64 -17
-14 -51 -5 -59 16 -3 9 -1 24 4 35 11 20 27 23 54 13z m432 -16 c-3 -13 -6
-26 -6 -30 0 -16 -26 -7 -37 12 -11 16 -10 21 5 29 30 18 45 13 38 -11z
m-1077 -42 c28 -30 23 -68 -14 -92 -32 -21 -64 -15 -88 17 -49 67 45 135 102
75z m-129 -109 c-4 -5 -28 -10 -53 -12 l-46 -3 22 23 c39 40 60 46 73 22 6
-12 8 -26 4 -30z m770 -57 l0 -110 -36 -15 c-20 -8 -39 -15 -43 -15 -3 0 -6
52 -6 115 l0 114 35 10 c19 5 38 9 43 10 4 1 7 -48 7 -109z m-125 -35 c0 -85
-3 -115 -12 -115 -17 0 -17 -16 0 -23 9 -3 13 -38 15 -120 l3 -116 -38 -10
c-21 -6 -42 -11 -47 -11 -5 0 -7 48 -4 106 5 103 4 105 -16 100 -12 -4 -33 -9
-48 -12 l-28 -6 0 -108 0 -108 -40 -10 -40 -10 0 113 0 113 48 21 47 21 -50
-4 -50 -5 3 119 3 118 40 10 39 10 0 -100 c0 -99 0 -100 23 -94 12 4 33 9 47
12 l26 6 -4 98 -4 97 38 11 c22 5 41 10 44 11 3 1 5 -51 5 -114z m-120 84 c4
-12 2 -26 -4 -32 -8 -8 -11 -7 -11 5 0 9 -5 18 -12 20 -12 4 -3 28 12 28 5 0
12 -9 15 -21z m-385 -19 c0 -16 -4 -30 -10 -30 -11 0 -14 43 -3 53 11 12 13 8
13 -23z m-190 -25 c0 -16 -6 -25 -15 -25 -15 0 -21 31 -8 43 13 14 23 6 23
-18z m50 5 c0 -11 -7 -20 -15 -20 -8 0 -15 9 -15 20 0 11 7 20 15 20 8 0 15
-9 15 -20z m104 -17 c6 -15 -8 -32 -26 -33 -12 0 -20 20 -14 35 7 20 32 19 40
-2z m-196 -10 c-2 -10 -9 -19 -16 -19 -6 -1 -16 -2 -22 -3 -5 0 -10 -7 -10
-15 0 -8 -18 -18 -40 -24 -29 -7 -40 -7 -39 2 0 16 58 59 80 61 10 1 22 4 25
8 13 13 25 7 22 -10z m429 5 c6 -7 13 -43 17 -79 6 -66 6 -67 -21 -77 -16 -5
-36 -13 -45 -17 -15 -6 -16 0 -11 51 6 53 5 57 -13 50 -10 -4 -31 -10 -46 -13
-28 -5 -28 -6 -28 -83 l0 -78 -31 -11 c-54 -19 -54 -19 -51 91 4 124 8 129
112 156 91 24 105 25 117 10z m758 -40 c13 -41 14 -52 16 -152 l2 -100 -34
-12 c-19 -7 -45 -13 -58 -13 -31 -1 -91 -41 -91 -61 0 -13 -2 -13 -9 -1 -6 9
-6 22 0 32 5 10 9 52 9 93 0 60 4 79 18 91 9 9 35 30 56 48 21 17 45 46 53 64
16 39 28 42 38 11z m-1025 -47 c0 -44 3 -41 -92 -62 l-58 -12 0 -64 c0 -34 1
-63 3 -63 2 0 27 7 55 15 47 14 54 14 68 1 25 -25 -17 -72 -77 -86 l-49 -12 0
-64 c0 -35 2 -64 5 -64 3 0 37 9 75 19 l70 20 0 -35 c0 -19 1 -37 3 -41 1 -5
-51 -22 -115 -39 l-118 -31 0 113 0 113 53 25 c44 21 48 24 25 25 -15 1 -38
-3 -52 -9 l-26 -10 0 123 0 122 103 26 c136 35 127 35 127 -10z m-264 -37 c-3
-9 -9 -28 -13 -42 -7 -32 -20 -42 -50 -42 -22 0 -23 -4 -23 -84 0 -83 0 -84
-27 -89 -16 -3 -36 -9 -45 -12 -16 -6 -17 0 -11 76 l6 82 -29 -7 c-16 -4 -36
-9 -44 -11 -12 -4 -15 5 -16 38 l-1 42 121 31 c67 17 125 32 130 32 4 1 5 -5
2 -14z m962 -130 l-3 -116 -40 -14 c-22 -7 -40 -14 -41 -14 -1 0 1 53 2 118 4
117 4 117 31 129 53 23 54 22 51 -103z m-700 38 c-2 -7 -6 -13 -10 -13 -5 1
-28 1 -53 1 -59 0 -60 23 -2 43 38 13 43 13 55 -1 7 -9 11 -23 10 -30z m245
12 c27 5 36 3 41 -10 9 -22 1 -31 -34 -39 -17 -4 -44 -18 -60 -32 l-30 -25 -9
24 c-5 14 -5 30 1 41 5 10 8 25 7 35 -4 42 1 46 25 23 20 -19 32 -22 59 -17z
m-511 -76 c1 -24 0 -100 -2 -169 -1 -82 2 -134 9 -148 13 -23 8 -27 -34 -33
-19 -3 -20 3 -22 107 -2 61 -3 119 -4 130 -1 24 10 125 16 143 2 6 11 12 20
12 11 0 15 -12 17 -42z m388 -77 l0 -80 42 12 41 12 1 54 c1 52 1 53 41 67 22
7 40 14 40 14 0 0 0 -38 0 -85 0 -107 -8 -116 -129 -145 -73 -17 -92 -18 -102
-8 -8 8 -14 48 -15 112 l-2 100 34 12 c19 7 37 13 42 13 4 1 7 -35 7 -78z
m336 -1 c-1 -44 -4 -80 -8 -80 -9 0 -11 121 -2 144 3 9 7 16 8 16 1 0 2 -36 2
-80z m732 48 c-5 -13 -260 -79 -288 -75 -38 6 5 25 124 54 147 36 169 38 164
21z m-1188 -73 c0 -39 -15 -51 -70 -57 -29 -2 -35 1 -38 17 -2 15 10 26 50 46
29 15 54 27 56 28 1 1 2 -15 2 -34z m1182 23 c-6 -6 -51 -22 -99 -34 -49 -12
-112 -28 -140 -37 -43 -13 -53 -13 -53 -3 0 9 27 21 68 31 37 10 96 26 132 36
80 22 109 24 92 7z m-357 -37 c6 -11 -11 -24 -36 -28 -72 -11 -96 -49 -24 -40
24 4 51 4 60 1 19 -8 19 -43 1 -70 -17 -24 -88 -48 -117 -39 -29 9 -18 30 17
32 36 2 84 20 84 31 0 17 -12 19 -50 10 -93 -24 -96 74 -4 102 40 11 62 12 69
1z m353 -2 c-2 -6 -64 -29 -138 -50 -149 -43 -150 -43 -150 -29 0 9 41 22 200
66 30 9 60 17 65 19 20 7 27 5 23 -6z m-1528 -119 l0 -119 -37 -10 c-21 -6
-40 -11 -43 -11 -3 0 -5 52 -5 115 l0 115 40 14 c22 8 41 15 43 15 1 1 2 -53
2 -119z m1010 69 c0 -17 5 -39 10 -50 7 -13 7 -25 1 -38 -8 -15 -6 -25 11 -46
l22 -28 -24 -19 c-16 -13 -32 -17 -48 -13 -18 4 -32 -1 -50 -17 l-25 -23 8 30
c4 17 9 52 12 80 3 31 14 61 30 82 14 18 22 37 18 44 -7 10 10 28 28 29 4 0 7
-14 7 -31z m528 -4 c-4 -5 -200 -62 -270 -79 -20 -4 -28 -3 -28 7 0 8 20 19
48 25 26 7 90 25 142 41 53 16 99 24 104 20 5 -5 7 -11 4 -14z m-590 -2 c-2
-9 -14 -20 -28 -23 -23 -5 -25 -11 -30 -80 -3 -46 -10 -75 -17 -78 -10 -3 -13
15 -13 68 l0 73 -30 -6 c-24 -5 -30 -3 -30 11 0 13 16 21 63 33 84 22 89 22
85 2z m-145 -82 c10 -7 17 -28 17 -46 0 -18 9 -44 20 -58 21 -26 13 -44 -15
-34 -7 3 -21 0 -31 -8 -10 -7 -23 -11 -29 -8 -7 2 -23 -1 -38 -6 l-26 -10 20
39 c23 45 28 132 8 156 -13 16 -13 16 16 32 17 9 21 6 31 -16 6 -15 18 -33 27
-41z m-115 13 c35 -24 31 -96 -6 -134 -38 -38 -95 -49 -123 -24 -18 16 -20 27
-15 68 6 56 26 82 70 95 44 13 49 13 74 -5z m822 -46 l0 -63 -196 -170 c-108
-93 -286 -249 -396 -346 l-200 -176 -22 21 c-12 12 -129 117 -260 235 -196
176 -236 216 -220 221 22 8 55 -15 172 -124 63 -58 216 -197 306 -278 11 -10
22 -18 26 -18 3 0 73 60 156 133 83 72 231 202 329 287 242 209 258 225 254
237 -3 9 -201 -45 -261 -72 -13 -5 -18 -3 -18 9 0 9 1 16 3 16 8 0 278 79 285
84 5 3 7 16 5 30 -4 18 0 25 14 29 10 3 19 5 21 6 1 0 2 -27 2 -61z m-50 28
c0 -9 -50 -28 -152 -56 -84 -23 -156 -45 -161 -47 -4 -2 -2 -13 3 -24 8 -14 7
-19 -3 -19 -20 0 -39 46 -24 58 7 6 57 22 112 36 77 20 184 51 223 65 1 1 2
-5 2 -13z m-948 -65 c-4 -50 -1 -65 18 -91 18 -25 19 -34 10 -45 -7 -8 -20
-15 -30 -15 -23 0 -37 -18 -42 -53 l-3 -27 -35 21 -34 21 26 23 c14 12 30 31
36 41 13 24 17 122 7 148 -8 19 8 36 36 36 13 0 15 -10 11 -59z m-78 7 c8 -13
8 -23 0 -35 -8 -13 -8 -23 0 -36 8 -13 7 -24 -4 -45 -15 -26 -46 -41 -118 -57
l-33 -7 3 88 3 88 45 12 c58 16 90 13 104 -8z m-206 -40 c-3 -7 -27 -18 -54
-25 -27 -7 -97 -26 -156 -42 -83 -22 -108 -26 -108 -15 0 14 25 22 195 68 106
28 128 30 123 14z m832 -48 c0 -33 -4 -50 -12 -50 -9 0 -12 15 -10 50 5 65 22
65 22 0z m326 25 c-21 -16 -145 -59 -151 -53 -11 11 17 28 75 46 81 25 102 27
76 7z m-406 -69 c0 -53 -4 -77 -15 -86 -9 -8 -15 -30 -15 -60 0 -30 6 -52 15
-60 23 -19 18 -49 -10 -62 -22 -10 -29 -9 -48 10 -21 22 -22 23 -4 53 9 17 17
48 17 68 0 24 8 49 21 65 18 23 20 34 14 86 -6 51 -5 60 9 60 13 0 16 -13 16
-74z m-763 31 c-3 -8 -33 -19 -69 -26 -52 -10 -150 -34 -230 -57 -11 -3 -18 0
-18 8 0 9 51 27 158 54 86 22 159 39 161 37 2 -1 1 -8 -2 -16z m673 -92 c0
-96 -3 -115 -15 -115 -13 0 -14 15 -9 103 3 56 7 108 10 115 10 33 14 2 14
-103z m-60 -69 c0 -136 3 -165 15 -170 22 -8 18 -43 -6 -60 -25 -17 -45 -12
-60 16 -8 15 -7 24 6 38 14 16 17 42 16 179 -2 139 0 161 14 161 13 0 15 -23
15 -164z m-68 -33 c-2 -57 -8 -103 -12 -103 -13 0 -17 273 -5 282 14 10 21
-59 17 -179z m388 178 c19 -5 52 -12 73 -16 60 -10 46 -29 -17 -21 -50 5 -126
30 -126 41 0 8 32 6 70 -4z m-450 -132 c0 -102 3 -124 18 -144 20 -25 19 -85
0 -85 -6 0 -8 8 -5 19 2 11 -5 31 -19 47 -22 27 -23 38 -24 157 0 106 2 127
15 127 13 0 15 -20 15 -121z m-475 102 c-6 -5 -55 -19 -110 -31 -55 -12 -124
-29 -152 -38 -48 -14 -76 -12 -60 4 3 4 66 22 139 40 133 33 201 42 183 25z
m414 -136 c-1 -99 3 -150 11 -160 20 -24 8 -60 -22 -63 -36 -4 -57 31 -34 57
13 14 16 44 16 158 0 134 2 145 28 152 2 1 2 -64 1 -144z m-61 53 c-2 -40 -7
-73 -13 -73 -5 0 -11 33 -13 73 -2 60 0 72 13 72 13 0 15 -12 13 -72z m564 55
c27 -24 23 -68 -9 -93 -28 -22 -63 -21 -90 2 -18 15 -16 68 4 90 20 22 70 23
95 1z m-924 -15 c-4 -10 -271 -87 -306 -88 -8 0 -12 6 -10 13 3 6 69 29 149
49 161 41 172 43 167 26z m302 -62 c0 -58 3 -75 16 -80 20 -8 15 -55 -8 -70
-35 -22 -78 38 -49 67 6 6 11 44 11 84 0 58 3 73 15 73 12 0 15 -15 15 -74z
m-244 53 c4 -7 25 -9 59 -4 l53 6 -31 -34 c-30 -32 -34 -33 -57 -21 -44 22
-63 41 -56 52 9 15 23 15 32 1z m145 -39 c40 -22 13 -89 -30 -75 -29 9 -36 42
-15 66 20 22 20 22 45 9z m617 -56 c12 -13 22 -28 22 -33 0 -13 -38 -33 -49
-26 -21 12 -32 75 -21 115 1 3 7 -3 13 -14 7 -10 22 -29 35 -42z m-285 -222
c24 -21 21 -49 -7 -67 -50 -33 -97 27 -55 71 22 24 30 23 62 -4z"/>
<path d="M1462 2333 c2 -10 10 -18 18 -18 8 0 16 8 18 18 2 12 -3 17 -18 17
-15 0 -20 -5 -18 -17z"/>
<path d="M1096 2047 c-36 -26 4 -84 42 -61 23 15 26 38 7 58 -20 19 -26 20
-49 3z"/>
<path d="M1363 1320 c-19 -8 -23 -17 -23 -54 0 -51 12 -60 58 -41 32 14 47 45
40 82 -4 21 -41 27 -75 13z"/>
<path d="M1113 1259 c-23 -7 -33 -16 -33 -30 0 -16 5 -19 20 -15 11 3 29 9 40
12 11 3 20 14 20 25 0 21 -1 21 -47 8z"/>
<path d="M1113 1188 c-35 -11 -56 -53 -22 -43 10 3 29 8 42 11 24 7 38 24 31
36 -6 9 -9 9 -51 -4z"/>
<path d="M1826 1084 c-32 -31 -6 -71 39 -60 19 5 25 13 25 35 0 40 -35 54 -64
25z"/>
<path d="M1464 739 c-10 -17 13 -36 27 -22 12 12 4 33 -11 33 -5 0 -12 -5 -16
-11z"/>
<path d="M2177 2429 c-9 -5 -22 -7 -27 -4 -6 3 -10 2 -10 -4 0 -5 6 -12 13
-14 6 -3 1 -6 -13 -6 -44 -2 -47 -10 -48 -128 0 -93 3 -113 15 -113 12 0 14
19 11 115 -2 97 -1 115 12 115 13 0 15 -18 12 -115 -3 -110 -2 -115 17 -115
23 0 29 25 9 34 -10 5 -10 7 0 12 14 7 16 34 2 34 -6 0 -5 8 2 20 11 17 10 22
-1 29 -9 6 -10 11 -2 15 17 11 13 36 -6 36 -15 0 -15 1 1 13 9 7 17 17 16 22
-5 24 1 35 19 35 14 0 21 -9 24 -27 3 -17 4 -12 3 12 -1 43 -16 53 -49 34z"/>
<path d="M1004 2392 c-14 -9 -17 -182 -3 -182 5 0 9 41 9 91 0 68 3 90 13 87
8 -3 13 -33 15 -92 2 -76 5 -86 18 -76 11 10 12 16 3 26 -7 8 -7 14 -1 14 5 0
10 20 10 45 1 29 -3 45 -11 45 -8 0 -6 4 3 10 13 9 12 12 -4 25 -22 17 -35 18
-52 7z"/>
<path d="M1913 2392 c-8 -5 -12 -26 -10 -55 1 -26 -2 -49 -8 -51 -6 -2 -6 -8
2 -16 6 -7 9 -18 7 -25 -3 -7 -1 -16 5 -20 7 -4 12 6 13 27 1 30 4 148 3 148
0 0 -6 -4 -12 -8z"/>
<path d="M1950 2323 c0 -38 -3 -78 -6 -90 -5 -16 -2 -23 9 -23 19 0 32 71 14
82 -9 6 -9 8 1 8 6 0 12 11 12 24 0 13 -6 27 -12 29 -10 4 -10 6 -1 6 14 1 6
31 -8 31 -5 0 -9 -30 -9 -67z"/>
<path d="M759 2326 c-7 -12 -12 -24 -11 -28 1 -5 -2 -8 -8 -8 -16 0 -12 -22 7
-35 15 -11 15 -15 4 -29 -11 -14 -11 -16 2 -16 19 0 27 38 13 62 -13 22 10 50
38 46 30 -4 29 -50 -2 -63 -22 -10 -22 -13 -17 -124 2 -63 7 -117 10 -120 15
-14 24 31 23 118 -1 64 3 96 10 99 9 3 12 -23 12 -88 0 -69 3 -91 13 -88 8 3
13 42 15 139 4 180 22 195 23 19 0 -74 3 -128 6 -120 3 8 12 19 19 23 17 10
18 137 0 137 -7 0 -7 3 2 8 9 6 10 19 4 48 -7 33 -12 39 -37 42 -19 3 -33 -2
-42 -14 -11 -16 -13 -16 -13 -2 0 25 -54 20 -71 -6z"/>
<path d="M1992 2250 c0 -33 4 -40 20 -40 19 0 20 1 4 25 -14 22 -15 25 -1 25
8 0 15 7 15 15 0 8 -9 15 -19 15 -16 0 -20 -7 -19 -40z"/>
<path d="M740 2185 c-10 -12 -10 -18 0 -30 7 -9 8 -15 2 -15 -11 0 -11 -18 1
-37 5 -7 4 -13 -1 -13 -6 0 -8 -9 -5 -20 3 -11 12 -20 19 -20 11 0 13 14 8 73
-4 39 -8 73 -9 75 -1 1 -8 -4 -15 -13z"/>
<path d="M1990 2180 c0 -11 4 -20 10 -20 5 0 14 9 20 20 9 17 8 20 -10 20 -13
0 -20 -7 -20 -20z"/>
<path d="M2066 2188 c5 -8 2 -9 -9 -5 -11 4 -17 1 -17 -8 0 -8 9 -15 20 -15
13 0 20 7 20 20 0 11 -5 20 -11 20 -5 0 -7 -5 -3 -12z"/>
<path d="M546 2124 c-22 -16 -21 -70 2 -80 9 -4 20 -6 25 -6 4 1 7 -8 8 -20 0
-16 2 -18 6 -8 3 8 10 18 15 21 5 3 -4 12 -21 19 -22 9 -31 19 -31 36 0 27 34
42 55 24 12 -10 15 -9 15 9 0 17 -5 21 -29 19 -16 -1 -37 -7 -45 -14z"/>
<path d="M610 2070 c-7 -14 -7 -20 0 -20 5 0 10 4 10 10 0 5 7 6 17 3 10 -4
14 -2 10 4 -4 6 -1 14 5 16 7 3 3 6 -9 6 -13 1 -27 -8 -33 -19z"/>
<path d="M730 2020 c0 -13 7 -20 20 -20 13 0 20 7 20 20 0 13 -7 20 -20 20
-13 0 -20 -7 -20 -20z"/>
<path d="M2440 1715 c0 -8 8 -15 18 -15 10 0 19 7 19 15 0 8 -9 15 -19 15 -10
0 -18 -7 -18 -15z"/>
<path d="M2490 1620 c0 -14 7 -20 21 -20 17 0 19 3 10 14 -9 11 -9 15 1 19 7
3 3 6 -9 6 -17 1 -23 -5 -23 -19z"/>
<path d="M2390 1570 c0 -13 7 -20 20 -20 13 0 20 7 20 20 0 13 -7 20 -20 20
-13 0 -20 -7 -20 -20z"/>
<path d="M2440 1570 c0 -13 7 -20 20 -20 13 0 20 7 20 20 0 13 -7 20 -20 20
-13 0 -20 -7 -20 -20z"/>
<path d="M2390 1520 c0 -13 7 -20 20 -20 14 0 20 6 19 23 -1 16 -2 18 -6 5 -2
-10 -9 -18 -15 -18 -5 0 -8 7 -4 15 3 8 1 15 -4 15 -6 0 -10 -9 -10 -20z"/>
<path d="M2440 1520 c0 -13 7 -20 20 -20 13 0 20 7 20 20 0 13 -7 20 -20 20
-13 0 -20 -7 -20 -20z"/>
<path d="M2390 1374 c0 -8 9 -14 20 -14 11 0 20 6 20 13 0 7 -9 13 -20 14 -11
1 -20 -4 -20 -13z"/>
<path d="M2440 1330 c0 -13 7 -20 18 -20 11 0 18 8 19 20 1 14 -4 20 -18 20
-12 0 -19 -7 -19 -20z"/>
<path d="M2395 1291 c3 -6 14 -8 25 -6 13 2 20 -2 20 -11 0 -8 9 -14 23 -13
20 0 21 1 2 8 -19 8 -19 8 0 19 17 10 13 11 -28 12 -28 0 -46 -4 -42 -9z"/>
<path d="M2340 1142 c0 -10 7 -19 15 -19 8 0 13 3 10 5 -3 3 0 11 6 19 9 10 7
13 -10 13 -14 0 -21 -6 -21 -18z"/>
<path d="M2109 1003 c-1 -10 -1 -21 0 -25 0 -5 -3 -8 -9 -8 -14 0 -12 -27 3
-34 10 -5 10 -7 0 -12 -7 -3 -13 -12 -13 -19 0 -7 6 -16 13 -18 10 -4 10 -6 0
-6 -7 -1 -13 -10 -13 -20 0 -11 6 -22 13 -24 10 -4 10 -6 0 -6 -18 -1 -16 -41
2 -41 12 0 15 19 15 115 0 63 -2 115 -5 115 -3 0 -6 -8 -6 -17z"/>
<path d="M2140 995 c0 -8 9 -15 20 -15 11 0 20 7 20 15 0 8 -9 15 -20 15 -11
0 -20 -7 -20 -15z"/>
<path d="M2190 994 c0 -9 7 -14 17 -12 25 5 28 28 4 28 -12 0 -21 -6 -21 -16z"/>
<path d="M840 865 c0 -77 -3 -105 -12 -105 -9 0 -12 15 -11 47 0 26 -1 71 -4
101 -9 83 -26 47 -29 -60 -2 -82 0 -94 18 -106 25 -18 21 -65 -6 -70 -30 -6
-36 16 -36 140 0 113 -1 116 -21 111 -18 -5 -19 -7 -5 -21 14 -14 13 -17 -2
-29 -16 -12 -16 -14 2 -28 11 -8 14 -15 8 -15 -16 0 -15 -37 1 -43 7 -3 5 -6
-5 -6 -14 -1 -16 -5 -8 -26 7 -17 6 -25 -1 -25 -7 0 -5 -10 5 -25 9 -14 13
-25 10 -25 -4 0 0 -8 9 -18 18 -20 77 -19 77 0 0 6 9 -1 21 -16 18 -23 22 -24
35 -11 9 8 22 15 30 15 10 0 14 12 14 40 0 34 -3 40 -21 40 -19 0 -20 -4 -15
-34 5 -26 3 -35 -10 -40 -8 -3 -16 -6 -17 -6 -1 0 -1 55 0 122 2 68 0 140 -3
161 -12 71 -24 37 -24 -68z"/>
<path d="M2141 855 c0 -107 2 -115 20 -115 10 0 19 6 19 13 0 9 2 9 8 0 12
-19 38 8 40 43 2 26 -2 33 -23 38 -24 6 -31 24 -25 65 1 8 -4 18 -12 22 -10 7
-10 9 0 9 6 0 12 9 12 20 0 13 -7 20 -19 20 -18 0 -19 -8 -20 -115z m66 -51
c8 -22 -11 -37 -36 -29 -17 5 -19 10 -11 26 13 23 38 25 47 3z"/>
<path d="M2190 950 c0 -23 10 -26 28 -8 18 18 15 28 -8 28 -13 0 -20 -7 -20
-20z"/>
<path d="M2391 953 c-1 -12 5 -24 12 -26 10 -4 10 -6 0 -6 -7 -1 -13 -10 -13
-21 0 -11 6 -20 13 -20 9 0 8 -3 -2 -9 -16 -11 -6 -17 40 -26 31 -6 36 -4 47
20 15 32 15 55 2 55 -5 0 -10 9 -10 19 0 16 -6 19 -35 18 -19 -1 -35 -6 -36
-12 0 -5 -4 -1 -9 10 -8 19 -9 19 -9 -2z m84 -44 c8 -25 -6 -42 -31 -37 -23 4
-31 37 -12 49 22 14 36 10 43 -12z"/>
<path d="M2051 768 c-1 -160 -3 -188 -16 -188 -13 0 -15 23 -15 149 0 110 -3
151 -12 154 -10 4 -10 6 0 6 6 1 12 8 12 17 0 14 -3 14 -15 4 -12 -10 -15 -41
-15 -156 0 -89 -4 -144 -10 -144 -6 0 -10 52 -10 136 0 125 -1 135 -16 123
-14 -12 -16 -34 -12 -166 3 -137 2 -153 -12 -153 -15 0 -16 14 -13 115 3 99 2
115 -12 115 -11 0 -14 -6 -9 -25 3 -14 2 -25 -2 -24 -5 1 -17 1 -27 0 -24 -1
-16 -26 8 -26 10 0 20 -6 23 -13 2 -7 0 -12 -5 -11 -4 1 -17 1 -27 0 -20 -1
-20 -1 0 -15 14 -11 21 -11 26 -3 5 7 8 3 8 -10 0 -13 -3 -22 -7 -22 -26 4
-43 -3 -43 -18 0 -15 2 -16 10 -3 6 9 10 10 10 3 0 -6 8 -14 18 -16 10 -3 7
-5 -10 -6 -27 -1 -27 -2 -11 -20 9 -11 20 -18 25 -15 4 3 8 -2 8 -10 0 -8 4
-17 10 -21 10 -6 64 5 56 12 -11 12 20 30 39 23 26 -10 56 -4 66 12 13 19 9
152 -5 160 -8 6 -7 8 2 8 6 0 12 9 12 19 0 11 -6 22 -12 24 -10 4 -10 6 0 6 6
1 12 10 12 20 0 11 -6 22 -12 24 -10 4 -10 6 0 6 6 1 12 10 12 20 0 11 -6 22
-12 24 -10 4 -10 6 0 6 14 1 17 31 3 31 -5 0 -12 8 -14 18 -3 9 -5 -67 -6
-170z"/>
<path d="M2190 900 c0 -22 1 -23 24 -14 23 9 20 34 -4 34 -13 0 -20 -7 -20
-20z"/>
<path d="M890 810 c0 -63 2 -70 20 -70 11 0 20 6 20 13 0 6 13 12 30 13 33 1
32 7 32 -140 0 -38 4 -63 8 -56 4 7 13 9 19 6 6 -4 11 -2 11 3 0 6 -4 11 -8
11 -4 0 -8 21 -8 48 -1 26 -2 68 -2 95 l-2 47 -57 1 c-32 1 -50 3 -40 6 19 5
24 43 5 43 -9 0 -9 3 0 12 18 18 14 38 -8 38 -18 0 -20 -7 -20 -70z"/>
<path d="M992 830 c0 -22 3 -40 9 -40 5 0 9 18 9 40 0 22 -4 40 -9 40 -5 0 -9
-18 -9 -40z"/>
<path d="M1040 733 c0 -56 -3 -108 -6 -117 -4 -12 0 -16 15 -16 12 0 21 6 21
15 0 8 -5 15 -10 15 -6 0 -5 8 2 20 11 17 10 22 -2 30 -10 6 -11 10 -2 10 6 0
12 7 12 15 0 18 5 18 31 5 15 -8 19 -7 19 5 0 11 -11 15 -37 16 -21 0 -32 3
-25 6 6 2 12 13 12 24 0 10 -6 19 -12 19 -9 0 -8 3 2 10 13 8 13 11 -2 27 -17
16 -18 12 -18 -84z"/>
<path d="M2090 761 c0 -14 6 -19 20 -18 25 2 23 30 -3 35 -11 2 -17 -3 -17
-17z"/>
<path d="M1232 573 c5 -25 28 -28 28 -4 0 12 -6 21 -16 21 -9 0 -14 -7 -12
-17z"/>
</g>
</svg>
